<svg xmlns="http://www.w3.org/2000/svg" xmlns:xlink="http://www.w3.org/1999/xlink" width="1080" zoomAndPan="magnify" viewBox="0 0 810 809.999993" height="1080" preserveAspectRatio="xMidYMid meet" version="1.0"><rect x="-81" width="972" fill="#ffffff" y="-80.999999" height="971.999992" fill-opacity="1"/><rect x="-81" width="972" fill="#ffffff" y="-80.999999" height="971.999992" fill-opacity="1"/><rect x="-81" width="972" fill="#ffffff" y="-80.999999" height="971.999992" fill-opacity="1"/><path fill="#ffffff" d="M 705.148438 217.324219 C 705.210938 218.15625 705.273438 219.03125 705.339844 219.929688 C 699.128906 134.101562 597.445312 107.605469 525.910156 114.496094 C 454.941406 121.335938 380.335938 147.003906 338.613281 208.386719 C 294.953125 272.617188 322.53125 356.433594 282.671875 421.277344 C 262.226562 454.53125 234.175781 484.054688 207.316406 512.183594 C 179.257812 541.566406 130.777344 570.179688 110.742188 604.828125 C 92.367188 636.605469 127.441406 671.234375 152.84375 685.15625 C 184.265625 702.371094 202.171875 685.613281 221.664062 660.820312 C 267.597656 602.390625 316.171875 538.828125 371.511719 489.0625 C 469.5 400.933594 717.867188 393.839844 705.339844 219.964844 C 705.574219 223.175781 705.816406 226.546875 705.964844 228.617188 C 705.847656 226.96875 705.648438 224.21875 705.339844 219.941406 C 705.269531 218.957031 705.207031 218.109375 705.148438 217.324219 Z M 705.148438 217.324219 " fill-opacity="1" fill-rule="nonzero"/><path fill="#68182b" d="M 689.730469 221.070312 C 687.882812 195.484375 677.636719 176.316406 657.242188 161.1875 C 640.726562 148.941406 621.777344 140.1875 601.898438 135.007812 C 573.542969 127.613281 543.75 127.472656 514.867188 131.566406 C 476.492188 137.003906 433.589844 147.988281 400.921875 169.53125 C 372.109375 188.527344 346.039062 216.761719 335.210938 250.027344 C 322.382812 289.457031 324.394531 332.417969 317.226562 372.953125 C 312.398438 400.261719 303.148438 420.617188 287.042969 442.816406 C 269.480469 467.023438 249.613281 489.605469 229.351562 511.570312 C 197.972656 545.589844 164.703125 576.292969 129.703125 606.277344 C 104.410156 627.945312 143.617188 666.484375 170.628906 676.113281 C 188.835938 682.597656 197.617188 666.09375 209.359375 651.15625 C 214.722656 644.328125 220.523438 637.78125 225.800781 631.304688 C 242.570312 610.730469 259.765625 590.5 277.058594 570.367188 C 304.023438 538.972656 330.179688 505.1875 361.042969 477.429688 C 389.777344 451.585938 422.949219 431.230469 458.007812 415.136719 C 497.59375 396.960938 540.152344 386.800781 579.574219 368.289062 C 611.636719 353.230469 644.058594 333.570312 666.152344 305.269531 C 684.566406 281.683594 691.867188 250.6875 689.730469 221.070312 Z M 653.402344 222.496094 C 649.429688 219.554688 645.355469 216.761719 641.1875 214.121094 C 644.199219 212.214844 647.253906 210.378906 650.324219 208.566406 C 652.148438 213.136719 653.105469 217.796875 653.402344 222.496094 Z M 644.035156 197.441406 C 645.832031 199.84375 647.347656 202.292969 648.605469 204.769531 C 644.789062 207.015625 641.019531 209.332031 637.292969 211.71875 C 628.5 206.402344 619.328125 201.707031 609.910156 197.535156 C 616.484375 192.921875 623.214844 188.550781 630.113281 184.476562 C 635.433594 188.03125 640.179688 192.28125 644.035156 197.441406 Z M 407.628906 271.191406 C 415.242188 262.433594 423.171875 253.953125 431.195312 245.683594 C 439.796875 247.542969 448.339844 249.683594 456.816406 252.03125 C 448.621094 260.351562 440.496094 268.871094 432.652344 277.648438 C 424.359375 275.28125 416.019531 273.117188 407.628906 271.191406 Z M 429.648438 281.050781 C 422.933594 288.691406 416.457031 296.527344 410.332031 304.589844 C 402.429688 302.144531 394.484375 299.839844 386.5 297.652344 C 392.1875 289.78125 398.257812 282.140625 404.59375 274.707031 C 412.996094 276.59375 421.347656 278.714844 429.648438 281.050781 Z M 434.582031 242.207031 C 437.3125 239.421875 440.042969 236.65625 442.777344 233.917969 C 447.390625 229.289062 452.070312 224.671875 456.8125 220.09375 C 465.382812 222.09375 473.886719 224.375 482.320312 226.855469 C 477.753906 231.230469 473.238281 235.632812 468.78125 240.042969 C 465.90625 242.890625 463.027344 245.765625 460.152344 248.660156 C 451.695312 246.28125 443.164062 244.117188 434.582031 242.207031 Z M 461.363281 253.3125 C 469.59375 255.667969 477.753906 258.207031 485.828125 260.878906 C 477.480469 269.238281 469.203125 277.796875 461.210938 286.617188 C 453.222656 283.867188 445.179688 281.289062 437.082031 278.90625 C 444.980469 270.136719 453.136719 261.621094 461.363281 253.3125 Z M 464.691406 249.96875 C 467.03125 247.621094 469.371094 245.285156 471.710938 242.96875 C 476.699219 238.035156 481.753906 233.109375 486.878906 228.222656 C 495.066406 230.710938 503.175781 233.375 511.191406 236.148438 C 507.09375 240.039062 503.03125 243.945312 499.015625 247.863281 C 495.707031 251.085938 492.398438 254.339844 489.09375 257.621094 C 488.707031 257.488281 488.324219 257.347656 487.933594 257.21875 C 480.261719 254.664062 472.507812 252.238281 464.691406 249.96875 Z M 490.328125 224.953125 C 498.699219 217.0625 507.269531 209.316406 516.082031 201.855469 C 523.550781 203.957031 530.929688 206.203125 538.171875 208.535156 C 539.054688 208.816406 539.941406 209.113281 540.824219 209.402344 C 531.855469 217.035156 523.121094 224.945312 514.578125 232.964844 C 514.175781 232.824219 513.78125 232.671875 513.378906 232.53125 C 505.773438 229.886719 498.085938 227.347656 490.328125 224.953125 Z M 501.945312 250.789062 C 506.433594 246.410156 510.980469 242.046875 515.574219 237.707031 C 524.96875 241.03125 534.308594 244.546875 543.5625 248.285156 C 542.523438 249.28125 541.476562 250.273438 540.441406 251.265625 C 534.167969 257.285156 527.980469 263.410156 521.851562 269.589844 C 512.464844 265.871094 502.992188 262.390625 493.457031 259.125 C 496.285156 256.328125 499.117188 253.542969 501.945312 250.789062 Z M 518.941406 234.535156 C 527.5625 226.480469 536.382812 218.554688 545.441406 210.917969 C 554.75 214.027344 564.09375 217.382812 573.34375 221.0625 C 564.28125 228.898438 555.464844 237.003906 546.832031 245.179688 C 537.609375 241.421875 528.308594 237.882812 518.941406 234.535156 Z M 577.617188 222.808594 C 586.761719 226.558594 595.785156 230.652344 604.574219 235.140625 C 595.195312 242.578125 586.082031 250.378906 577.257812 258.519531 C 568.597656 254.445312 559.839844 250.578125 551.003906 246.90625 C 559.664062 238.710938 568.515625 230.613281 577.617188 222.808594 Z M 576.828125 218.078125 C 567.660156 214.367188 558.394531 210.972656 549.144531 207.816406 C 557.207031 201.136719 565.46875 194.707031 573.945312 188.617188 C 583.273438 191.46875 592.527344 194.710938 601.582031 198.425781 C 593.101562 204.648438 584.863281 211.242188 576.828125 218.078125 Z M 544.542969 206.277344 C 543.746094 206.011719 542.945312 205.738281 542.148438 205.476562 C 534.882812 203.089844 527.46875 200.773438 519.949219 198.613281 C 527.5 192.347656 535.226562 186.304688 543.160156 180.597656 C 548.515625 181.757812 553.84375 183.027344 559.125 184.410156 C 562.398438 185.265625 565.671875 186.179688 568.941406 187.128906 C 560.605469 193.21875 552.484375 199.636719 544.542969 206.277344 Z M 515.121094 197.25 C 506.5625 194.878906 497.886719 192.746094 489.140625 190.957031 C 495.832031 185.414062 502.679688 180.078125 509.707031 175.023438 C 519.105469 176.09375 528.453125 177.597656 537.71875 179.460938 C 530.003906 185.125 522.472656 191.078125 515.121094 197.25 Z M 511.261719 200.523438 C 502.546875 207.980469 494.054688 215.707031 485.765625 223.5625 C 477.371094 221.050781 468.894531 218.746094 460.359375 216.695312 C 468.367188 209.066406 476.566406 201.578125 485.023438 194.398438 C 493.851562 196.113281 502.613281 198.195312 511.261719 200.523438 Z M 455.550781 215.558594 C 447.207031 213.664062 438.808594 212.058594 430.371094 210.769531 C 437.96875 203.671875 445.765625 196.742188 453.804688 190.117188 C 462.488281 190.746094 471.171875 191.90625 479.808594 193.433594 C 471.503906 200.582031 463.425781 208.003906 455.550781 215.558594 Z M 451.988281 219.007812 C 447.894531 222.984375 443.84375 226.984375 439.847656 230.992188 C 436.5 234.347656 433.148438 237.742188 429.808594 241.167969 C 421.207031 239.359375 412.554688 237.839844 403.863281 236.652344 C 407.984375 232.453125 412.140625 228.324219 416.28125 224.257812 C 419.664062 220.9375 423.089844 217.640625 426.546875 214.363281 C 435.070312 215.574219 443.554688 217.152344 451.988281 219.007812 Z M 426.398438 244.6875 C 418.429688 252.949219 410.566406 261.429688 403.03125 270.179688 C 394.707031 268.355469 386.335938 266.769531 377.917969 265.429688 C 384.933594 256.714844 392.507812 248.386719 400.269531 240.339844 C 409.019531 241.453125 417.734375 242.925781 426.398438 244.6875 Z M 400.035156 273.703125 C 393.804688 281.089844 387.835938 288.671875 382.242188 296.484375 C 374.941406 294.535156 367.609375 292.679688 360.238281 290.953125 C 360.21875 290.867188 360.191406 290.78125 360.171875 290.691406 C 364.625 283.226562 369.621094 276.050781 375.007812 269.121094 C 383.394531 270.402344 391.742188 271.929688 400.035156 273.703125 Z M 379.703125 300.082031 C 376.824219 304.230469 374.066406 308.445312 371.433594 312.730469 C 370.21875 311.308594 369.050781 309.835938 367.953125 308.285156 C 365.015625 304.136719 362.914062 299.859375 361.484375 295.519531 C 367.578125 296.964844 373.65625 298.480469 379.703125 300.082031 Z M 383.925781 301.238281 C 391.886719 303.398438 399.804688 305.683594 407.683594 308.105469 C 402.53125 315.070312 397.667969 322.214844 393.15625 329.546875 C 386.207031 325.910156 379.808594 321.433594 374.355469 315.890625 C 377.382812 310.917969 380.570312 306.027344 383.925781 301.238281 Z M 411.882812 309.378906 C 419.867188 311.882812 427.816406 314.511719 435.710938 317.285156 C 430.296875 324.488281 425.191406 331.886719 420.457031 339.484375 C 412.371094 337.53125 404.359375 334.921875 396.875 331.414062 C 401.523438 323.871094 406.546875 316.527344 411.882812 309.378906 Z M 414.550781 305.871094 C 420.742188 297.789062 427.285156 289.9375 434.066406 282.285156 C 442.175781 284.644531 450.230469 287.210938 458.238281 289.941406 C 451.324219 297.695312 444.652344 305.65625 438.339844 313.847656 C 430.453125 311.0625 422.527344 308.394531 414.550781 305.871094 Z M 462.484375 291.394531 C 472.0625 294.746094 481.5625 298.351562 490.984375 302.148438 C 483.910156 309.953125 476.96875 317.875 470.164062 325.914062 C 460.984375 322.199219 451.726562 318.683594 442.414062 315.332031 C 448.78125 307.125 455.515625 299.15625 462.484375 291.394531 Z M 465.445312 288.113281 C 473.492188 279.292969 481.808594 270.726562 490.191406 262.367188 C 499.761719 265.609375 509.269531 269.066406 518.691406 272.769531 C 510.273438 281.328125 502.011719 290.042969 493.910156 298.902344 C 484.5 295.09375 475.015625 291.480469 465.445312 288.113281 Z M 522.878906 274.449219 C 531.84375 278.050781 540.722656 281.867188 549.5 285.914062 C 541.257812 294.574219 533.265625 303.464844 525.460938 312.476562 C 516.394531 308.339844 507.238281 304.363281 498.003906 300.558594 C 506.132812 291.703125 514.4375 283.007812 522.878906 274.449219 Z M 526.027344 271.265625 C 530.976562 266.292969 535.949219 261.355469 540.992188 256.484375 C 543.226562 254.328125 545.476562 252.171875 547.734375 250.019531 C 556.585938 253.664062 565.355469 257.503906 574.03125 261.558594 C 566.691406 268.4375 559.53125 275.519531 552.542969 282.773438 C 543.804688 278.714844 534.960938 274.878906 526.027344 271.265625 Z M 578.03125 263.464844 C 586.78125 267.632812 595.425781 272.019531 603.945312 276.628906 C 596.617188 283.511719 589.480469 290.601562 582.46875 297.828125 C 573.945312 293.1875 565.285156 288.78125 556.507812 284.617188 C 563.511719 277.382812 570.675781 270.316406 578.03125 263.464844 Z M 581.289062 260.433594 C 590.113281 252.351562 599.210938 244.589844 608.59375 237.21875 C 616.921875 241.632812 625.007812 246.425781 632.75 251.664062 C 623.921875 258.648438 615.417969 266.023438 607.152344 273.660156 C 598.648438 269.035156 590.023438 264.625 581.289062 260.433594 Z M 608.046875 232.367188 C 599.261719 227.816406 590.246094 223.664062 581.101562 219.851562 C 589.1875 213.03125 597.480469 206.472656 606.027344 200.300781 C 615.476562 204.367188 624.6875 208.960938 633.503906 214.1875 C 624.792969 219.917969 616.296875 225.964844 608.046875 232.367188 Z M 626.15625 182.011719 C 619.089844 186.257812 612.199219 190.804688 605.46875 195.609375 C 596.535156 191.839844 587.40625 188.535156 578.183594 185.613281 C 585.28125 180.660156 592.539062 175.964844 599.96875 171.578125 C 609.105469 174.109375 618.144531 177.382812 626.15625 182.011719 Z M 575.84375 166.148438 C 581.761719 167.296875 588.027344 168.550781 594.335938 170.101562 C 587.128906 174.484375 580.082031 179.160156 573.171875 184.070312 C 569.875 183.082031 566.570312 182.125 563.257812 181.226562 C 558.132812 179.835938 552.957031 178.554688 547.753906 177.367188 C 554.164062 172.90625 560.707031 168.667969 567.398438 164.695312 C 570.222656 165.140625 573.042969 165.605469 575.84375 166.148438 Z M 560.867188 163.785156 C 554.539062 167.6875 548.347656 171.832031 542.269531 176.160156 C 533.175781 174.230469 523.988281 172.644531 514.753906 171.457031 C 519.585938 168.121094 524.511719 164.933594 529.527344 161.902344 C 540 161.796875 550.476562 162.441406 560.867188 163.785156 Z M 485.203125 167.105469 C 487.804688 166.496094 490.417969 165.921875 493.054688 165.417969 C 502.390625 163.636719 511.84375 162.585938 521.328125 162.128906 C 517.019531 164.886719 512.785156 167.757812 508.605469 170.730469 C 499.816406 169.773438 490.996094 169.199219 482.175781 169.046875 C 483.179688 168.390625 484.191406 167.753906 485.203125 167.105469 Z M 503.566406 174.386719 C 496.867188 179.34375 490.324219 184.539062 483.925781 189.921875 C 475.46875 188.332031 466.957031 187.121094 458.445312 186.347656 C 464.207031 181.75 470.101562 177.34375 476.132812 173.148438 C 485.28125 173.101562 494.4375 173.535156 503.566406 174.386719 Z M 463.667969 173.515625 C 465.351562 173.421875 467.039062 173.359375 468.722656 173.300781 C 463.183594 177.320312 457.78125 181.542969 452.464844 185.882812 C 447.277344 185.550781 442.097656 185.410156 436.929688 185.46875 C 445.507812 180.824219 454.445312 176.835938 463.667969 173.515625 Z M 429.242188 189.855469 C 435.386719 189.53125 441.550781 189.507812 447.730469 189.777344 C 439.988281 196.296875 432.476562 203.085938 425.140625 210.007812 C 418.121094 209.058594 411.078125 208.335938 404.019531 207.914062 C 411.945312 201.226562 420.375 195.1875 429.242188 189.855469 Z M 399.4375 211.84375 C 406.726562 212.15625 414.003906 212.78125 421.257812 213.675781 C 418.601562 216.21875 415.964844 218.769531 413.355469 221.332031 C 408.472656 226.125 403.570312 231.011719 398.722656 236 C 391.914062 235.179688 385.085938 234.574219 378.242188 234.21875 C 384.75 226.183594 391.816406 218.6875 399.4375 211.84375 Z M 375.058594 238.214844 C 381.765625 238.488281 388.460938 238.996094 395.136719 239.730469 C 387.503906 247.734375 380.089844 256.027344 373.226562 264.695312 C 369.511719 264.148438 365.785156 263.667969 362.050781 263.222656 C 364.851562 254.417969 369.488281 245.925781 375.058594 238.214844 Z M 360.929688 267.222656 C 364.074219 267.589844 367.214844 267.949219 370.347656 268.390625 C 366.4375 273.511719 362.742188 278.773438 359.320312 284.179688 C 358.9375 278.515625 359.523438 272.824219 360.929688 267.222656 Z M 433.753906 385.464844 C 430.058594 387.179688 426.359375 388.597656 425.402344 389.054688 C 417.28125 392.9375 409.339844 396.984375 401.605469 401.601562 C 387.15625 410.222656 373.523438 420.113281 360.246094 430.421875 C 359.351562 431.117188 358.46875 431.828125 357.582031 432.53125 C 369.351562 409.011719 377.355469 380.90625 376.371094 355.203125 C 384.640625 362.105469 394.082031 367.957031 404.417969 370.757812 C 406.46875 371.3125 420.238281 372.546875 430.585938 374.5625 C 447.605469 377.875 441.296875 381.957031 433.753906 385.464844 Z M 454.808594 344.53125 C 450.636719 344.242188 446.46875 343.882812 442.339844 343.378906 C 436.597656 342.679688 430.667969 341.722656 424.734375 340.457031 C 429.410156 333.035156 434.433594 325.800781 439.765625 318.757812 C 449.03125 322.070312 458.234375 325.558594 467.367188 329.234375 C 463.128906 334.292969 458.933594 339.382812 454.808594 344.53125 Z M 499.710938 343.480469 C 486.457031 345.015625 473.097656 345.460938 459.875 344.824219 C 463.671875 340.121094 467.519531 335.457031 471.414062 330.832031 C 480.996094 334.75 490.480469 338.929688 499.90625 343.242188 C 499.84375 343.320312 499.777344 343.402344 499.710938 343.480469 Z M 474.195312 327.527344 C 481.015625 319.5 487.972656 311.59375 495.058594 303.800781 C 504.335938 307.601562 513.539062 311.578125 522.648438 315.722656 C 515.796875 323.714844 509.121094 331.804688 502.574219 339.929688 C 493.183594 335.621094 483.738281 331.449219 474.195312 327.527344 Z M 551.117188 331.558594 C 537.160156 336.570312 522.65625 340.160156 507.9375 342.382812 C 507.441406 342.148438 506.933594 341.929688 506.433594 341.695312 C 512.992188 333.578125 519.683594 325.5 526.542969 317.523438 C 535.289062 321.554688 543.953125 325.722656 552.53125 329.988281 C 552.058594 330.511719 551.589844 331.035156 551.117188 331.558594 Z M 529.359375 314.289062 C 537.179688 305.28125 545.199219 296.40625 553.460938 287.757812 C 562.257812 291.90625 570.933594 296.289062 579.476562 300.914062 C 571.3125 309.417969 563.316406 318.085938 555.410156 326.804688 C 546.808594 322.519531 538.125 318.339844 529.359375 314.289062 Z M 559.667969 328.269531 C 567.410156 319.738281 575.246094 311.265625 583.246094 302.949219 C 587.175781 305.121094 591.070312 307.363281 594.9375 309.640625 C 583.859375 317.023438 572.023438 323.226562 559.667969 328.269531 Z M 598.945312 306.980469 C 598.894531 307.015625 598.835938 307.050781 598.78125 307.089844 C 594.632812 304.621094 590.457031 302.203125 586.234375 299.859375 C 593.253906 292.644531 600.40625 285.566406 607.75 278.703125 C 612.617188 281.382812 617.441406 284.136719 622.214844 286.964844 C 614.507812 294.90625 606.347656 301.769531 598.945312 306.980469 Z M 625.140625 283.875 C 620.457031 281.089844 615.730469 278.378906 610.964844 275.738281 C 619.140625 268.226562 627.558594 260.988281 636.285156 254.132812 C 638.6875 255.824219 641.050781 257.558594 643.375 259.34375 C 638.410156 268.09375 632.03125 276.40625 625.140625 283.875 Z M 645.347656 255.691406 C 643.476562 254.265625 641.578125 252.871094 639.660156 251.507812 C 643.214844 248.78125 646.820312 246.121094 650.484375 243.527344 C 649.148438 247.632812 647.398438 251.695312 645.347656 255.691406 Z M 652.15625 237.332031 C 646.695312 241.082031 641.363281 244.988281 636.140625 249.03125 C 628.429688 243.761719 620.382812 238.945312 612.101562 234.496094 C 620.308594 228.1875 628.75 222.210938 637.421875 216.578125 C 642.953125 220.019531 648.3125 223.726562 653.476562 227.707031 C 653.335938 230.914062 652.867188 234.128906 652.15625 237.332031 Z M 652.15625 237.332031 " fill-opacity="1" fill-rule="nonzero"/><path fill="#00ebed" d="M 172.472656 670.121094 C 160.007812 665.207031 145.894531 652.136719 141.382812 647 C 135.503906 640.304688 127.828125 630.222656 129.011719 620.632812 C 130.691406 607.085938 147.046875 607.71875 156.644531 610.808594 C 174.851562 616.660156 189.058594 632.136719 191.429688 651.007812 C 193.226562 665.257812 184.761719 674.964844 172.472656 670.121094 Z M 172.472656 670.121094 " fill-opacity="1" fill-rule="nonzero"/><path fill="#ff5671" d="M 301.359375 531.425781 C 295.542969 538.277344 289.753906 545.121094 283.925781 551.859375 C 255.050781 585.246094 225.445312 618.511719 199.1875 654.03125 C 198.980469 654.304688 198.777344 654.582031 198.574219 654.859375 C 197.523438 627.398438 174.90625 604.667969 147.128906 601.710938 C 181.195312 574.347656 211.722656 541.308594 240.953125 509.105469 C 244.65625 505.023438 248.332031 500.917969 251.972656 496.777344 C 266.371094 480.425781 274.945312 471.542969 292.207031 478.335938 C 300.089844 481.441406 306.816406 486.945312 311.21875 494.152344 C 321.246094 510.5625 312.28125 518.570312 301.359375 531.425781 Z M 301.359375 531.425781 " fill-opacity="1" fill-rule="nonzero"/><path fill="#00ebed" d="M 648.234375 163.226562 C 630.824219 151.453125 611.105469 143.621094 590.535156 139.46875 C 560.171875 133.335938 528.5625 135.253906 498.371094 141.386719 C 458.691406 149.445312 417.21875 162.3125 386.265625 189.320312 C 356.738281 215.085938 340.429688 245.996094 334.636719 284.46875 C 328.742188 323.621094 329.257812 364.179688 317.535156 402.316406 C 312.171875 419.765625 301.316406 435.105469 290.550781 449.632812 C 285.734375 456.136719 280.722656 462.496094 275.640625 468.796875 C 298.644531 468.265625 319.066406 483.4375 322.949219 506.472656 C 334.390625 493.652344 346.242188 481.242188 359.046875 469.988281 C 384.214844 447.871094 412.574219 429.648438 442.601562 414.84375 C 476.949219 397.914062 513.335938 387.609375 548.925781 373.90625 C 584.460938 360.222656 620.460938 342.023438 647.957031 315.179688 C 671.972656 291.734375 683.441406 262.15625 683.121094 228.597656 C 682.84375 199.835938 671.609375 179.027344 648.234375 163.226562 Z M 449.359375 380.988281 C 446.539062 390.601562 427.421875 395.515625 420.0625 399.253906 C 400.371094 409.253906 382.226562 422.046875 364.816406 435.558594 C 362.761719 437.148438 355.933594 443.167969 348.117188 448.808594 C 348.058594 448.847656 348.003906 448.894531 347.941406 448.933594 C 334.554688 458.5625 318.351562 466.972656 318.25 450.117188 C 318.171875 436.808594 329.773438 422.394531 334.484375 410.347656 C 341.328125 392.839844 344.289062 375.609375 347.265625 357.171875 C 348.304688 350.71875 349.472656 337.9375 357.242188 335.3125 C 364.042969 333.015625 370.554688 340.320312 374.753906 344.511719 C 383.980469 353.421875 395.273438 361.492188 407.929688 364.574219 C 417.300781 366.855469 427.160156 366.878906 436.550781 369.28125 C 442.164062 370.714844 451.617188 373.296875 449.359375 380.988281 Z M 582.328125 325.234375 C 529.96875 353.097656 458 362.773438 401.726562 340.808594 C 381.648438 332.972656 362.308594 319.148438 354.957031 298.054688 C 347.109375 275.535156 356.023438 252.632812 369.410156 234.289062 C 406.730469 185.929688 463.257812 157.140625 524.371094 155.066406 C 556.179688 153.984375 590.382812 159.175781 619.820312 171.488281 C 638.453125 179.28125 654.648438 193.332031 658.796875 213.84375 C 668.53125 261.96875 619.871094 305.253906 582.328125 325.234375 Z M 582.328125 325.234375 " fill-opacity="1" fill-rule="nonzero"/><path fill="#fac135" d="M 334.4375 450.128906 C 329.585938 453.097656 325.058594 454.332031 325.96875 446.066406 C 326.738281 439.097656 332.738281 431.476562 335.714844 425.042969 C 338.515625 418.988281 341.015625 412.765625 343.285156 406.492188 C 348.046875 393.332031 351.097656 380.222656 352.902344 366.386719 C 353.539062 361.511719 353.710938 347.949219 357.726562 343.949219 C 359.855469 341.832031 362.152344 342.484375 364.328125 344.0625 C 369.53125 347.828125 369.882812 354.148438 369.398438 364.53125 C 368.515625 383.46875 363.128906 403.242188 355.359375 420.980469 C 348.238281 437.25 343.476562 444.589844 334.4375 450.128906 Z M 334.4375 450.128906 " fill-opacity="1" fill-rule="nonzero"/><path fill="#00afb3" d="M 642.949219 179.429688 C 621.042969 158.28125 589.363281 150.746094 559.941406 148.480469 C 527.238281 145.964844 492.476562 149.140625 461.664062 160.820312 C 431.480469 172.265625 401.609375 188.953125 379.347656 212.625 C 358.574219 234.710938 341.757812 268.371094 354.824219 298.371094 C 355.144531 299.109375 355.550781 299.765625 355.902344 300.472656 C 355.582031 299.667969 355.246094 298.878906 354.957031 298.054688 C 347.109375 275.535156 356.023438 252.632812 369.410156 234.289062 C 406.730469 185.929688 463.257812 157.140625 524.371094 155.066406 C 556.179688 153.984375 590.382812 159.175781 619.820312 171.488281 C 638.453125 179.28125 654.648438 193.332031 658.796875 213.839844 C 659.714844 218.375 660.109375 222.867188 660.046875 227.300781 C 663.546875 209.863281 656.570312 192.574219 642.949219 179.429688 Z M 642.949219 179.429688 " fill-opacity="1" fill-rule="nonzero"/><path fill="#00afb3" d="M 322.949219 506.472656 C 334.390625 493.652344 346.238281 481.242188 359.046875 469.988281 C 384.214844 447.871094 412.574219 429.648438 442.601562 414.84375 C 476.949219 397.914062 513.335938 387.609375 548.925781 373.90625 C 584.460938 360.222656 620.460938 342.023438 647.957031 315.179688 C 671.972656 291.734375 683.441406 262.15625 683.121094 228.597656 C 682.921875 207.839844 676.980469 191.25 664.921875 177.667969 C 672.863281 194.824219 676.117188 214.105469 674.148438 234.097656 C 670.835938 267.703125 650.820312 296.832031 625.601562 318.195312 C 594.6875 344.390625 555.128906 358.15625 517.355469 371.128906 C 498.042969 377.761719 479.003906 384.53125 460.488281 393.183594 C 441.261719 402.171875 422.746094 412.628906 404.609375 423.625 C 392.304688 431.085938 380.980469 439.660156 369.796875 448.683594 C 360.148438 456.464844 351.441406 465.429688 341.644531 472.976562 C 329.855469 482.0625 318.035156 480.617188 304.734375 476.050781 C 303.054688 475.472656 301.410156 474.9375 299.785156 474.464844 C 311.679688 480.8125 320.527344 492.113281 322.949219 506.472656 Z M 322.949219 506.472656 " fill-opacity="1" fill-rule="nonzero"/><path fill="#00afb3" d="M 191.429688 651.007812 C 189.96875 639.390625 184.011719 629.070312 175.410156 621.476562 C 178.71875 630.972656 179.820312 641.660156 176.066406 649.574219 C 171.375 659.46875 158.292969 654.78125 151.09375 651.140625 C 145.929688 648.53125 141.050781 645.167969 136.679688 641.234375 C 138.246094 643.335938 139.875 645.28125 141.382812 647 C 145.894531 652.136719 160.007812 665.207031 172.472656 670.121094 C 184.761719 674.964844 193.226562 665.257812 191.429688 651.007812 Z M 191.429688 651.007812 " fill-opacity="1" fill-rule="nonzero"/><path fill="#88f9f9" d="M 327.957031 391.949219 C 331.664062 377.875 332.503906 363.109375 333.386719 348.648438 C 335.269531 317.855469 336.46875 286.832031 344.800781 256.9375 C 348.824219 242.503906 354.921875 228.738281 362.460938 215.808594 C 363.128906 214.664062 363.800781 213.503906 364.476562 212.335938 C 348.4375 233.074219 338.800781 256.8125 334.636719 284.46875 C 328.742188 323.621094 329.257812 364.179688 317.535156 402.3125 C 312.171875 419.765625 301.316406 435.105469 290.550781 449.632812 C 285.734375 456.136719 280.722656 462.496094 275.640625 468.796875 C 277.761719 468.746094 279.851562 468.875 281.914062 469.085938 C 283.722656 466.746094 285.511719 464.390625 287.296875 462.042969 C 296.03125 450.546875 304.902344 439.148438 312.53125 426.875 C 319.308594 415.972656 324.6875 404.371094 327.957031 391.949219 Z M 327.957031 391.949219 " fill-opacity="1" fill-rule="nonzero"/><path fill="#88f9f9" d="M 161.917969 625.6875 C 158.035156 621 152.375 617.535156 146.796875 616.363281 C 138.167969 614.550781 131.796875 620.242188 136.3125 628.914062 C 140.585938 637.113281 150.480469 645.867188 160.289062 645.445312 C 171.46875 644.960938 168.085938 633.132812 161.917969 625.6875 Z M 161.917969 625.6875 " fill-opacity="1" fill-rule="nonzero"/><path fill="#df3f58" d="M 308.761719 490.660156 C 307.242188 499.402344 301.894531 508.175781 297.21875 515.0625 C 287.621094 529.191406 275.441406 541.832031 264.332031 554.761719 C 251.277344 569.953125 237.871094 584.851562 223.460938 598.78125 C 215.945312 606.042969 208.132812 614.429688 198.261719 618.328125 C 193.898438 620.050781 189.175781 620.699219 184.398438 620.800781 C 192.753906 630.0625 198.078125 641.917969 198.574219 654.859375 C 198.777344 654.582031 198.984375 654.304688 199.1875 654.03125 C 225.445312 618.515625 255.050781 585.246094 283.925781 551.859375 C 289.753906 545.121094 295.542969 538.277344 301.359375 531.425781 C 312.28125 518.570312 321.246094 510.5625 311.21875 494.152344 C 310.472656 492.933594 309.636719 491.78125 308.761719 490.660156 Z M 308.761719 490.660156 " fill-opacity="1" fill-rule="nonzero"/><path fill="#ff9780" d="M 289.171875 477.28125 C 273.890625 472.648438 265.503906 481.414062 251.972656 496.777344 C 248.328125 500.917969 244.652344 505.023438 240.949219 509.105469 C 211.722656 541.308594 181.191406 574.347656 147.125 601.710938 C 150.882812 602.109375 154.53125 602.898438 158.054688 603.984375 C 169.996094 591.699219 182.3125 579.875 195 568.320312 C 208.402344 556.109375 222.117188 544.15625 234.011719 530.433594 C 244.5625 518.261719 254.269531 505.382812 265.808594 494.089844 C 271.703125 488.320312 278.1875 483.214844 285.382812 479.167969 C 286.609375 478.476562 287.886719 477.867188 289.171875 477.28125 Z M 289.171875 477.28125 " fill-opacity="1" fill-rule="nonzero"/></svg>